<?xml version="1.0" standalone="no"?>
<!DOCTYPE svg PUBLIC "-//W3C//DTD SVG 20010904//EN" "http://www.w3.org/TR/2001/REC-SVG-20010904/DTD/svg10.dtd">
<svg version="1.0" xmlns="http://www.w3.org/2000/svg" width="614.000000pt" height="614.000000pt"
	viewBox="0 0 614.000000 614.000000" preserveAspectRatio="xMidYMid meet">

	<g transform="translate(0.000000,614.000000) scale(0.100000,-0.100000)" stroke="none">
		<path d="M2407 5016 c-67 -25 -122 -76 -153 -141 -45 -96 -25 -216 49 -293 34
-36 96 -72 122 -72 13 0 15 -34 15 -277 l0 -278 -100 100 -100 100 16 49 c66
193 -134 367 -318 275 -131 -66 -160 -258 -55 -367 18 -19 47 -40 66 -48 43
-18 142 -18 185 0 l33 14 137 -137 136 -136 0 -117 c0 -64 5 -129 11 -145 5
-15 138 -157 295 -314 l285 -286 -3 -456 c-2 -295 1 -459 7 -465 23 -22 54
-23 74 -3 21 21 21 29 21 695 l0 673 45 17 c60 23 138 109 161 178 10 30 17
81 17 116 -1 121 -94 250 -205 284 l-38 11 0 62 c0 60 1 64 44 106 48 48 66
95 66 172 0 122 -96 219 -218 219 -70 0 -117 -18 -161 -63 -75 -75 -91 -175
-43 -270 32 -65 100 -114 168 -125 l45 -6 -3 -45 c-3 -44 -4 -45 -55 -62 -145
-49 -221 -162 -211 -314 10 -143 107 -257 241 -282 l37 -7 1 -107 c1 -58 2
-116 3 -129 0 -12 -2 -23 -6 -25 -8 -3 -450 431 -465 457 -9 16 -12 138 -13
477 l0 456 44 17 c55 21 131 100 145 152 25 89 8 192 -42 257 -56 74 -194 115
-280 83z m171 -114 c16 -12 40 -43 52 -67 42 -86 5 -176 -88 -217 -29 -13 -55
-18 -76 -14 -152 29 -187 215 -56 304 44 30 121 27 168 -6z m454 -452 c53 -15
88 -61 88 -116 0 -83 -47 -134 -125 -134 -96 0 -155 102 -111 189 19 37 51 58
106 70 3 0 22 -4 42 -9z m-902 -82 c54 -53 52 -128 -5 -185 -28 -28 -40 -33
-80 -33 -85 0 -132 57 -122 146 6 53 28 80 81 98 50 17 92 9 126 -26z m1029
-506 c141 -87 122 -302 -31 -367 -72 -30 -171 -13 -226 38 -13 12 -33 40 -44
61 -28 55 -22 159 11 208 67 97 189 123 290 60z" />
		<path d="M3488 4980 c-128 -68 -136 -254 -13 -326 l45 -26 0 -570 0 -570 -112
-114 c-62 -63 -121 -131 -130 -152 -16 -34 -17 -85 -15 -616 2 -567 2 -579 22
-592 16 -11 25 -11 45 -1 l25 13 5 576 5 576 50 53 c27 30 122 127 211 217
l160 162 193 0 194 0 38 -34 c34 -32 91 -56 129 -56 95 0 190 94 190 188 0 52
-42 132 -85 161 -52 35 -129 40 -183 12 -46 -23 -91 -83 -101 -133 l-7 -33
-199 -5 c-126 -3 -207 -9 -220 -17 -11 -6 -38 -30 -60 -52 -21 -23 -43 -41
-47 -41 -4 0 -8 232 -8 515 l0 514 29 15 c41 22 89 80 101 125 40 149 -126
283 -262 211z m145 -111 c42 -52 3 -139 -63 -139 -42 0 -80 39 -80 82 0 34 23
71 50 81 26 10 74 -2 93 -24z m737 -1079 c5 0 18 -10 30 -22 45 -49 8 -138
-58 -138 -42 0 -82 40 -82 83 0 45 52 93 88 81 8 -2 18 -4 22 -4z" />
		<path d="M3835 4399 c-88 -47 -125 -109 -125 -210 0 -55 5 -73 33 -119 73
-122 234 -147 339 -52 99 89 106 238 16 335 -62 67 -184 88 -263 46z m186
-118 c35 -35 39 -44 39 -88 0 -36 -6 -58 -21 -77 -80 -102 -229 -52 -229 76 0
82 45 127 129 128 37 0 49 -5 82 -39z" />
		<path d="M1820 3941 c-145 -46 -219 -166 -190 -307 10 -49 20 -65 65 -110 45
-46 61 -54 114 -65 53 -11 61 -16 61 -35 0 -13 5 -35 11 -51 5 -15 158 -177
340 -358 l329 -331 0 -309 c0 -171 3 -320 6 -331 7 -25 46 -46 69 -38 9 4 20
15 25 25 6 10 10 148 10 336 0 290 -2 322 -19 358 -12 26 -131 152 -340 360
l-321 320 0 43 c0 48 -21 96 -45 106 -9 3 -42 6 -72 6 -51 0 -58 3 -94 39 -50
50 -56 115 -17 179 51 84 186 82 242 -3 15 -23 23 -25 89 -25 66 0 76 -3 98
-26 23 -24 24 -33 29 -188 4 -136 8 -167 24 -192 10 -16 133 -141 273 -278
140 -138 261 -262 269 -277 11 -23 14 -95 14 -387 0 -282 3 -362 13 -376 15
-21 62 -25 80 -7 9 9 12 115 12 394 0 350 -2 385 -18 417 -10 19 -141 155
-290 302 l-272 266 -5 165 c-5 164 -5 166 -35 208 -40 56 -103 89 -170 89 -36
0 -57 5 -66 16 -37 44 -165 82 -219 65z" />
		<path d="M4008 3420 c-39 -12 -79 -46 -105 -88 -25 -41 -31 -120 -13 -168 11
-27 5 -34 -174 -213 -101 -102 -192 -202 -203 -221 -16 -32 -18 -67 -21 -357
-2 -206 1 -329 7 -341 17 -31 50 -34 77 -7 l24 24 0 317 0 318 188 188 187
189 53 -7 c97 -12 187 45 211 133 13 47 13 59 0 106 -27 98 -134 156 -231 127z
m111 -126 c65 -82 -42 -182 -116 -108 -21 21 -24 32 -19 62 11 71 94 99 135
46z" />
	</g>
</svg>